<svg xmlns="http://www.w3.org/2000/svg" width="98" height="56" version="1.0" viewBox="0 0 73.5 42">
  <defs/>
  <path fill="#fefefe" d="M14.777 41.063c-.21-.516-3.622-8.675-7.58-18.132S0 4.851 0 3.77C0 2.221.531 1.61 2.49.901 7.493-.908 7.508-.893 12.37 10.945c2.472 6.018 4.705 11.072 4.963 11.231.258.16 2.773-4.596 5.588-10.568C27.738 1.393 28.167.75 30.165.75c1.997 0 2.449.677 7.628 11.438l5.504 11.437 5.682-11.812C54.027 1.318 54.866 0 56.5 0c1.012 0 2.012.422 2.223.938.21.515 3.622 8.674 7.58 18.13 3.958 9.458 7.197 18.08 7.197 19.163 0 1.548-.531 2.16-2.49 2.868-5.002 1.809-5.017 1.794-9.88-10.044-2.472-6.018-4.706-11.073-4.965-11.232-.259-.16-2.784 4.595-5.612 10.568-4.828 10.198-5.27 10.859-7.257 10.859-1.988 0-2.447-.69-7.614-11.437l-5.5-11.438L24.5 30.188C19.465 40.65 18.607 42 16.99 42c-1.006 0-2.001-.422-2.212-.937z"/>
</svg>
